<?xml version="1.0" encoding="utf-8"?>
<!-- Generator: Adobe Illustrator 22.0.1, SVG Export Plug-In . SVG Version: 6.00 Build 0)  -->
<svg version="1.1" id="Capa_1" xmlns="http://www.w3.org/2000/svg" xmlns:xlink="http://www.w3.org/1999/xlink" x="0px" y="0px"
	 viewBox="0 0 34 34" style="enable-background:new 0 0 34 34;" xml:space="preserve">
<style type="text/css">
	.st0{fill:#020303;}
</style>
<title>ICONS</title>
<desc>Created with Sketch.</desc>
<path class="st0" d="M32.3,9h-9.5c1.5-0.9,2.6-1.9,2.7-1.9c0.9-0.8,1.3-1.8,1.3-3c0-1.1-0.5-2.2-1.3-3c-1.7-1.6-4.5-1.5-6.2,0
	c-0.8,0.7-1.8,2.3-2.5,3.9c-0.7-1.7-1.7-3.2-2.5-3.9C13.3,0.4,12.2,0,11.1,0C9.9,0,8.8,0.4,7.9,1.2C7.1,2,6.6,3,6.6,4.1
	c0,1.1,0.5,2.2,1.3,3c0,0,1.2,1,2.7,1.9H1.1C0.5,9,0,9.5,0,10.1v7.7c0,0.6,0.5,1.1,1.1,1.1h0.6v14.1c0,0.6,0.5,1.1,1.1,1.1h27.9
	c0.6,0,1.1-0.5,1.1-1.1V18.8h0.6c0.6,0,1.1-0.5,1.1-1.1v-7.7C33.4,9.5,32.9,9,32.3,9z M20.6,2.8C21.6,2,23.1,2,24,2.8
	c0.4,0.4,0.6,0.9,0.6,1.4c0,0.5-0.2,1-0.6,1.4c-1.6,1.4-5.1,3.3-6,3.1C17.7,7.7,19.4,3.9,20.6,2.8z M9.4,5.5C9,5.1,8.8,4.6,8.8,4.1
	c0-0.5,0.2-1,0.6-1.4c0.4-0.4,1-0.6,1.7-0.6c0.6,0,1.2,0.2,1.7,0.6c1.2,1.1,2.9,4.9,2.6,5.8C14.5,8.8,11,6.9,9.4,5.5z M15.6,31.8
	H3.8v-13h11.8V31.8z M29.6,31.8H17.8v-13h11.8V31.8z M31.2,16.7H2.2v-5.5h13.4v2.2c0,0.6,0.5,1.1,1.1,1.1c0.6,0,1.1-0.5,1.1-1.1
	v-2.2h13.4V16.7z"/>
</svg>
